<svg viewBox="0 0 26 26" width="23" height="23" fill="none" xmlns="http://www.w3.org/2000/svg"><path d="M20.85 1.301A5.622 5.622 0 0 0 18.433.75c-.83 0-1.65.187-2.417.551a6.333 6.333 0 0 0-2.05 1.57L12.75 4.268l-1.217-1.395C10.348 1.514 8.742.75 7.066.75c-1.675 0-3.281.763-4.466 2.12C1.416 4.23.75 6.072.75 7.993c0 1.921.666 3.763 1.85 5.121l1.217 1.396L12.75 24.75l8.932-10.241 1.217-1.396a7.387 7.387 0 0 0 1.37-2.35 8.17 8.17 0 0 0 .481-2.77 8.17 8.17 0 0 0-.481-2.772 7.388 7.388 0 0 0-1.37-2.35 6.333 6.333 0 0 0-2.049-1.57Z" stroke="#000" stroke-opacity=".8" stroke-width="1.5" stroke-linejoin="round"/></svg>